<svg xmlns="http://www.w3.org/2000/svg" width="933" height="428" viewBox="0 0 933 428">

<path d="M 195.00 272.00 190.00 273.00 188.00 277.00 193.00 302.00 192.00 322.00 188.00 333.00 178.00 346.00 171.00 351.00 160.00 355.00 158.00 355.00 154.00 352.00 153.00 346.00 156.00 342.00 164.00 336.00 170.00 324.00 170.00 320.00 168.00 317.00 163.00 316.00 160.00 318.00 157.00 326.00 151.00 332.00 142.00 333.00 140.00 331.00 139.00 326.00 140.00 312.00 146.00 296.00 156.00 278.00 154.00 273.00 148.00 272.00 146.00 273.00 142.00 279.00 134.00 295.00 130.00 306.00 128.00 315.00 128.00 329.00 131.00 339.00 134.00 342.00 142.00 345.00 142.00 354.00 143.00 357.00 148.00 363.00 153.00 365.00 165.00 365.00 174.00 362.00 185.00 355.00 192.00 348.00 200.00 334.00 203.00 324.00 204.00 299.00 203.00 298.00 203.00 291.00 200.00 277.00 Z M 771.00 247.00 769.00 249.00 769.00 363.00 771.00 364.00 783.00 364.00 786.00 361.00 786.00 289.00 787.00 288.00 790.00 296.00 790.00 300.00 793.00 309.00 793.00 313.00 796.00 322.00 801.00 347.00 804.00 349.00 816.00 349.00 818.00 348.00 831.00 290.00 832.00 289.00 834.00 290.00 834.00 362.00 836.00 364.00 848.00 364.00 850.00 363.00 851.00 361.00 851.00 250.00 850.00 248.00 848.00 247.00 827.00 247.00 825.00 249.00 813.00 310.00 810.00 317.00 808.00 315.00 795.00 249.00 793.00 247.00 Z M 667.00 247.00 665.00 249.00 665.00 361.00 668.00 364.00 680.00 364.00 683.00 362.00 683.00 249.00 681.00 247.00 Z M 519.00 247.00 516.00 249.00 516.00 361.00 518.00 364.00 551.00 364.00 562.00 361.00 568.00 357.00 574.00 347.00 576.00 338.00 576.00 271.00 574.00 263.00 570.00 256.00 566.00 252.00 558.00 248.00 553.00 247.00 Z M 536.00 264.00 549.00 264.00 553.00 266.00 558.00 273.00 558.00 336.00 556.00 341.00 549.00 347.00 536.00 347.00 534.00 344.00 534.00 267.00 Z M 439.00 247.00 437.00 249.00 437.00 361.00 439.00 364.00 453.00 364.00 455.00 362.00 455.00 294.00 456.00 293.00 459.00 295.00 482.00 363.00 484.00 364.00 498.00 364.00 501.00 362.00 501.00 249.00 498.00 247.00 485.00 247.00 483.00 249.00 483.00 317.00 482.00 318.00 477.00 307.00 458.00 249.00 455.00 247.00 Z M 376.00 247.00 373.00 250.00 373.00 362.00 375.00 364.00 422.00 364.00 425.00 360.00 425.00 350.00 423.00 347.00 393.00 347.00 391.00 344.00 391.00 316.00 396.00 313.00 418.00 313.00 419.00 312.00 419.00 298.00 418.00 297.00 393.00 297.00 391.00 295.00 391.00 266.00 393.00 264.00 422.00 264.00 424.00 263.00 424.00 249.00 422.00 247.00 Z M 316.00 247.00 313.00 250.00 314.00 253.00 314.00 292.00 313.00 293.00 314.00 297.00 313.00 299.00 314.00 301.00 313.00 305.00 314.00 307.00 314.00 359.00 313.00 361.00 315.00 364.00 358.00 364.00 361.00 360.00 361.00 350.00 359.00 347.00 334.00 347.00 332.00 345.00 331.00 341.00 332.00 253.00 331.00 249.00 329.00 247.00 Z M 889.00 245.00 877.00 250.00 872.00 255.00 868.00 262.00 866.00 269.00 866.00 342.00 870.00 353.00 876.00 360.00 881.00 363.00 891.00 366.00 902.00 366.00 910.00 364.00 917.00 360.00 923.00 353.00 927.00 343.00 927.00 338.00 928.00 337.00 928.00 274.00 925.00 261.00 920.00 253.00 911.00 247.00 904.00 245.00 Z M 895.00 262.00 904.00 264.00 907.00 267.00 909.00 272.00 909.00 340.00 907.00 344.00 901.00 348.00 892.00 348.00 885.00 342.00 884.00 339.00 884.00 272.00 889.00 264.00 Z M 719.00 245.00 708.00 249.00 700.00 257.00 697.00 264.00 697.00 269.00 696.00 270.00 697.00 284.00 701.00 293.00 711.00 303.00 727.00 315.00 735.00 323.00 739.00 331.00 739.00 340.00 737.00 344.00 732.00 348.00 727.00 349.00 721.00 348.00 715.00 342.00 714.00 330.00 713.00 329.00 697.00 329.00 696.00 330.00 696.00 342.00 698.00 350.00 704.00 359.00 713.00 364.00 722.00 366.00 732.00 366.00 740.00 364.00 746.00 361.00 754.00 352.00 757.00 343.00 757.00 327.00 751.00 314.00 743.00 306.00 723.00 291.00 718.00 285.00 715.00 279.00 715.00 270.00 721.00 263.00 730.00 262.00 734.00 264.00 738.00 270.00 738.00 279.00 739.00 281.00 754.00 281.00 756.00 279.00 756.00 268.00 751.00 255.00 746.00 250.00 734.00 245.00 Z M 612.00 245.00 605.00 247.00 600.00 250.00 593.00 258.00 590.00 266.00 590.00 343.00 593.00 352.00 601.00 361.00 610.00 365.00 626.00 366.00 634.00 364.00 641.00 360.00 648.00 350.00 650.00 344.00 650.00 306.00 649.00 305.00 622.00 305.00 620.00 308.00 621.00 320.00 622.00 321.00 631.00 321.00 633.00 323.00 633.00 340.00 631.00 344.00 626.00 348.00 615.00 348.00 609.00 343.00 608.00 340.00 608.00 271.00 609.00 268.00 614.00 263.00 623.00 262.00 627.00 264.00 631.00 269.00 632.00 284.00 633.00 285.00 648.00 285.00 650.00 283.00 650.00 272.00 648.00 262.00 645.00 256.00 638.00 249.00 628.00 245.00 Z M 192.00 225.00 192.00 232.00 212.00 249.00 218.00 256.00 222.00 257.00 226.00 255.00 227.00 248.00 222.00 242.00 201.00 224.00 195.00 223.00 Z M 241.00 116.00 231.00 119.00 224.00 125.00 220.00 132.00 219.00 145.00 221.00 152.00 229.00 161.00 239.00 165.00 248.00 165.00 257.00 161.00 264.00 154.00 267.00 146.00 267.00 135.00 265.00 129.00 257.00 120.00 250.00 117.00 Z M 240.00 129.00 249.00 130.00 254.00 135.00 255.00 138.00 255.00 144.00 253.00 148.00 246.00 153.00 238.00 152.00 232.00 145.00 232.00 137.00 234.00 133.00 Z M 136.00 106.00 132.00 110.00 133.00 116.00 147.00 124.00 156.00 131.00 147.00 143.00 146.00 151.00 149.00 160.00 156.00 168.00 163.00 171.00 167.00 171.00 170.00 169.00 171.00 164.00 169.00 161.00 165.00 159.00 160.00 154.00 158.00 147.00 162.00 142.00 168.00 140.00 171.00 137.00 172.00 132.00 170.00 128.00 160.00 119.00 142.00 107.00 Z M 294.00 9.00 290.00 12.00 286.00 26.00 279.00 32.00 265.00 37.00 262.00 41.00 262.00 45.00 265.00 48.00 271.00 49.00 279.00 53.00 286.00 61.00 291.00 73.00 298.00 74.00 301.00 71.00 304.00 61.00 315.00 51.00 326.00 47.00 328.00 44.00 328.00 39.00 326.00 36.00 319.00 34.00 308.00 28.00 304.00 23.00 300.00 12.00 297.00 9.00 Z M 12.00 18.00 6.00 23.00 4.00 27.00 4.00 32.00 8.00 38.00 18.00 44.00 29.00 56.00 36.00 73.00 39.00 91.00 43.00 105.00 48.00 117.00 57.00 133.00 67.00 146.00 79.00 158.00 89.00 166.00 103.00 175.00 117.00 182.00 132.00 187.00 137.00 200.00 146.00 210.00 126.00 229.00 105.00 255.00 92.00 278.00 85.00 300.00 84.00 327.00 88.00 342.00 95.00 354.00 101.00 360.00 109.00 364.00 114.00 369.00 114.00 375.00 111.00 381.00 109.00 391.00 109.00 403.00 112.00 412.00 118.00 419.00 129.00 423.00 246.00 422.00 254.00 419.00 260.00 413.00 262.00 408.00 262.00 400.00 260.00 395.00 249.00 385.00 245.00 383.00 234.00 382.00 226.00 377.00 236.00 367.00 243.00 357.00 250.00 350.00 256.00 349.00 262.00 346.00 269.00 339.00 274.00 326.00 275.00 309.00 271.00 288.00 262.00 264.00 248.00 236.00 250.00 234.00 260.00 232.00 277.00 224.00 289.00 215.00 298.00 205.00 305.00 194.00 311.00 178.00 311.00 173.00 312.00 172.00 312.00 163.00 309.00 153.00 303.00 146.00 295.00 142.00 293.00 139.00 292.00 118.00 290.00 110.00 283.00 95.00 278.00 88.00 267.00 77.00 257.00 70.00 242.00 63.00 224.00 59.00 201.00 59.00 194.00 61.00 192.00 60.00 177.00 44.00 155.00 27.00 139.00 18.00 116.00 9.00 90.00 4.00 63.00 4.00 62.00 5.00 54.00 5.00 34.00 9.00 22.00 13.00 Z M 191.00 389.00 194.00 386.00 202.00 385.00 214.00 380.00 221.00 388.00 230.00 392.00 243.00 394.00 249.00 399.00 251.00 403.00 251.00 406.00 245.00 411.00 227.00 411.00 226.00 412.00 218.00 411.00 210.00 407.00 201.00 399.00 194.00 396.00 191.00 393.00 Z M 27.00 25.00 44.00 20.00 62.00 18.00 63.00 17.00 88.00 17.00 89.00 18.00 101.00 19.00 125.00 26.00 147.00 37.00 167.00 52.00 188.00 74.00 208.00 72.00 209.00 71.00 219.00 71.00 235.00 74.00 246.00 78.00 257.00 85.00 273.00 102.00 280.00 119.00 281.00 133.00 282.00 134.00 282.00 147.00 284.00 150.00 290.00 151.00 296.00 154.00 300.00 160.00 301.00 171.00 300.00 174.00 297.00 177.00 287.00 178.00 286.00 179.00 272.00 179.00 271.00 180.00 267.00 179.00 263.00 180.00 260.00 184.00 261.00 188.00 265.00 191.00 279.00 191.00 280.00 190.00 289.00 190.00 290.00 189.00 293.00 190.00 286.00 201.00 279.00 208.00 271.00 214.00 259.00 220.00 244.00 224.00 236.00 224.00 231.00 227.00 231.00 233.00 239.00 245.00 251.00 268.00 261.00 295.00 264.00 311.00 263.00 324.00 260.00 332.00 256.00 337.00 254.00 336.00 253.00 327.00 252.00 326.00 246.00 326.00 239.00 344.00 235.00 350.00 222.00 363.00 206.00 372.00 193.00 376.00 188.00 376.00 184.00 379.00 180.00 390.00 181.00 399.00 185.00 403.00 197.00 409.00 196.00 411.00 129.00 412.00 122.00 406.00 120.00 402.00 120.00 391.00 125.00 376.00 125.00 367.00 122.00 361.00 117.00 356.00 110.00 353.00 101.00 343.00 98.00 337.00 95.00 326.00 95.00 307.00 102.00 284.00 116.00 260.00 130.00 242.00 158.00 215.00 158.00 208.00 156.00 204.00 145.00 192.00 145.00 190.00 146.00 189.00 148.00 190.00 159.00 189.00 162.00 185.00 162.00 182.00 159.00 179.00 156.00 178.00 140.00 178.00 136.00 176.00 133.00 176.00 112.00 167.00 90.00 152.00 73.00 135.00 64.00 122.00 55.00 103.00 44.00 58.00 39.00 48.00 33.00 40.00 20.00 29.00 Z" fill="#fff" fill-rule="evenodd" style="shape-rendering:geometricPrecision"/>
</svg>