<svg xmlns="http://www.w3.org/2000/svg" width="1024" height="1024" viewBox="0 0 1024 1024">
<rect width="100%" height="100%" fill="#000"/>
<path d="M 436 640 435 641 434 641 433 642 432 642 431 643 430 644 430 645 429 646 428 647 428 648 427 649 427 650 426 651 426 652 425 653 424 654 424 655 423 656 423 657 422 658 422 659 421 660 421 661 420 662 420 663 419 664 419 665 418 666 418 667 417 668 417 669 416 670 416 671 415 672 415 673 414 674 414 675 414 676 413 677 413 678 412 679 412 680 412 681 411 682 411 683 410 684 410 685 410 686 409 687 409 688 408 689 408 690 408 691 407 692 407 693 407 694 406 695 406 696 406 697 405 698 405 699 405 700 405 701 404 702 404 703 404 704 403 705 403 706 403 707 403 708 402 709 402 710 402 711 402 712 402 713 401 714 401 715 401 716 401 717 401 718 400 719 400 720 400 721 400 722 400 723 400 724 399 725 399 726 399 727 399 728 399 729 399 730 399 731 399 732 399 733 399 734 399 735 399 736 399 737 399 738 399 739 399 740 399 741 399 742 399 743 399 744 399 745 400 746 400 747 400 748 400 749 400 750 401 751 401 752 401 753 402 754 402 755 403 756 403 757 404 758 404 759 405 760 406 761 406 762 407 763 408 764 409 765 410 766 411 767 412 767 413 768 414 769 415 769 416 770 417 770 418 771 419 771 420 772 421 772 422 773 422 774 423 775 423 776 423 777 423 778 423 779 423 780 424 781 424 782 424 783 424 784 425 785 425 786 425 787 426 788 426 789 426 790 427 791 427 792 428 793 428 794 429 795 429 796 430 797 431 798 431 799 432 800 433 801 434 802 435 803 436 804 437 805 438 806 439 807 440 807 441 808 442 808 443 809 444 809 445 810 446 810 447 810 448 810 449 811 450 811 451 811 452 811 453 811 454 811 455 812 456 812 457 812 458 812 459 812 460 812 461 812 462 812 463 812 464 812 465 812 466 811 467 811 468 811 469 811 470 811 471 811 472 811 473 810 474 810 475 810 476 810 477 809 478 809 479 809 480 809 481 808 482 808 483 808 484 807 485 807 486 806 487 806 488 806 489 805 490 805 491 804 492 804 493 803 494 803 495 802 496 802 497 801 498 801 499 800 500 799 501 799 502 798 503 797 504 797 505 796 506 795 507 794 508 794 509 793 510 792 511 791 512 790 513 789 514 789 515 788 516 787 517 786 517 785 518 784 519 783 520 782 521 781 522 780 523 779 524 778 524 777 525 776 526 775 527 774 527 773 528 772 529 771 529 770 530 769 530 768 531 767 532 766 532 765 533 764 533 763 534 762 534 761 535 760 535 759 536 758 536 757 537 756 537 755 537 754 538 753 538 752 539 751 539 750 539 749 540 748 540 747 540 746 541 745 541 744 541 743 541 742 542 741 542 740 542 739 542 738 543 737 543 736 543 735 543 734 544 733 544 732 544 731 544 730 544 729 544 728 544 727 545 726 545 725 545 724 545 723 545 722 545 721 545 720 545 719 545 718 545 717 546 716 546 715 546 714 546 713 546 712 546 711 546 710 546 709 546 708 546 707 546 706 546 705 546 704 546 703 546 702 546 701 546 700 546 699 546 698 546 697 546 696 546 695 545 694 545 693 545 692 545 691 545 690 545 689 545 688 545 687 545 686 545 685 545 684 544 683 544 682 544 681 544 680 544 679 544 678 544 677 544 676 543 675 543 674 543 673 543 672 543 671 543 670 542 669 542 668 542 667 542 666 542 665 541 664 541 663 541 662 541 661 540 660 540 659 540 658 540 657 539 656 539 655 539 654 539 653 538 652 538 651 538 650 537 649 536 648 536 647 535 646 534 646 533 645 532 644 531 644 530 644 529 643 528 643 527 643 526 643 525 643 524 643 523 644 522 644 521 644 520 645 519 645 518 646 517 647 516 648 516 649 515 650 515 651 514 652 514 653 514 654 514 655 514 656 514 657 514 658 514 659 514 660 515 661 515 662 515 663 516 664 516 665 516 666 516 667 516 668 517 669 517 670 517 671 517 672 517 673 518 674 518 675 518 676 518 677 518 678 518 679 519 680 519 681 519 682 519 683 519 684 519 685 519 686 519 687 519 688 520 689 520 690 520 691 520 692 520 693 520 694 520 695 520 696 520 697 520 698 520 699 520 700 520 701 520 702 520 703 520 704 520 705 520 706 520 707 520 708 520 709 520 710 520 711 520 712 520 713 520 714 520 715 520 716 520 717 520 718 520 719 520 720 520 721 519 722 519 723 519 724 519 725 519 726 519 727 518 728 518 729 518 730 518 731 518 732 517 733 517 734 517 735 517 736 516 737 516 738 516 739 515 740 515 741 515 742 514 743 514 744 513 745 513 746 512 747 512 748 511 749 511 750 510 751 510 752 509 753 509 754 508 755 508 756 507 757 506 758 505 759 505 760 504 761 503 762 502 763 502 764 501 765 500 766 499 767 498 768 497 769 496 770 495 771 494 772 493 772 492 773 491 774 490 775 489 776 488 776 487 777 486 778 485 778 484 779 483 780 482 780 481 781 480 781 479 782 478 782 477 783 476 783 475 783 474 784 473 784 472 785 471 785 470 785 469 786 468 786 467 786 466 786 465 786 464 787 463 787 462 787 461 787 460 787 459 787 458 787 457 787 456 787 455 787 454 786 453 786 452 785 451 784 450 783 450 782 449 781 449 780 449 779 448 778 448 777 448 776 448 775 448 774 448 773 449 772 450 772 451 772 452 771 453 771 454 770 455 770 456 770 457 769 458 768 459 768 460 767 461 766 462 766 463 765 464 764 465 764 466 763 467 762 468 761 469 760 470 759 471 758 472 757 473 756 473 755 474 754 475 753 476 752 476 751 477 750 478 749 478 748 479 747 479 746 480 745 480 744 481 743 481 742 482 741 482 740 483 739 483 738 483 737 483 736 483 735 483 734 483 733 483 732 482 731 482 730 482 729 481 728 481 727 480 726 479 725 478 724 477 724 476 723 475 723 474 722 473 722 472 722 471 722 470 722 469 722 468 722 467 723 466 723 465 723 464 724 463 724 462 725 461 726 460 727 459 728 459 729 459 730 458 731 458 732 457 733 457 734 456 735 456 736 455 737 455 738 454 739 453 740 452 741 451 742 450 743 449 744 448 745 447 745 446 746 445 746 444 747 443 747 442 748 441 748 440 749 439 749 438 749 437 749 436 749 435 749 434 749 433 749 432 749 431 749 430 749 429 748 428 748 427 747 426 746 426 745 425 744 425 743 425 742 424 741 424 740 424 739 424 738 424 737 424 736 424 735 424 734 424 733 424 732 424 731 424 730 424 729 425 728 425 727 425 726 425 725 425 724 425 723 426 722 426 721 426 720 426 719 426 718 427 717 427 716 427 715 427 714 428 713 428 712 428 711 429 710 429 709 429 708 429 707 430 706 430 705 430 704 431 703 431 702 431 701 432 700 432 699 432 698 433 697 433 696 434 695 434 694 434 693 435 692 435 691 436 690 436 689 437 688 437 687 437 686 438 685 438 684 439 683 439 682 440 681 440 680 441 679 441 678 442 677 442 676 443 675 443 674 444 673 444 672 445 671 445 670 446 669 446 668 447 667 447 666 448 665 448 664 449 663 449 662 450 661 451 660 451 659 451 658 452 657 452 656 452 655 453 654 453 653 453 652 453 651 452 650 452 649 452 648 451 647 451 646 450 645 449 644 448 643 447 642 446 642 445 641 444 641 443 640 442 640 441 640 440 640 439 640 438 640 437 640 Z M 532 548 531 549 530 549 529 549 528 549 527 550 526 550 525 551 524 552 523 553 522 554 522 555 521 556 521 557 521 558 521 559 520 560 520 561 520 562 520 563 521 564 521 565 521 566 522 567 522 568 523 569 524 570 525 571 525 572 526 572 527 573 528 574 529 575 530 576 531 577 532 578 533 579 534 580 535 581 536 581 537 582 538 583 539 584 540 585 541 586 542 587 543 588 544 589 545 590 546 591 547 591 548 592 549 593 550 594 551 595 552 596 553 597 554 598 555 598 556 599 557 600 558 601 559 602 560 603 561 604 562 605 563 606 564 606 565 607 566 608 567 609 568 610 569 611 570 612 571 613 572 613 573 614 574 614 575 615 576 615 577 615 578 615 579 616 580 616 581 615 582 615 583 615 584 614 585 614 586 613 587 613 588 612 589 611 589 610 590 609 591 608 591 607 591 606 591 605 592 604 592 603 592 602 591 601 591 600 591 599 591 598 590 597 590 596 589 595 588 594 587 593 586 592 585 591 584 590 583 589 582 588 581 587 580 586 579 585 578 584 577 583 576 582 575 582 574 581 573 580 572 579 571 578 570 577 569 576 568 575 567 574 566 574 565 573 564 572 563 571 562 570 561 569 560 568 559 567 558 566 557 566 556 565 555 564 554 563 553 562 552 561 551 560 550 559 549 558 548 557 547 557 546 556 545 555 544 554 543 553 542 552 541 551 540 551 539 550 538 549 537 549 536 549 535 548 534 548 533 548 Z M 617 345 616 346 615 346 614 346 613 346 612 346 611 346 610 347 609 347 608 347 607 347 606 348 605 348 604 349 603 349 602 349 601 350 600 350 599 351 598 352 597 352 596 353 595 353 594 354 593 355 592 356 591 356 590 357 589 358 588 359 587 360 586 361 585 362 585 363 584 364 583 365 582 366 582 367 581 368 580 369 580 370 579 371 579 372 578 373 578 374 578 375 577 376 577 377 576 378 576 379 576 380 576 381 575 382 575 383 575 384 575 385 575 386 574 387 574 388 574 389 574 390 574 391 574 392 574 393 574 394 574 395 574 396 574 397 574 398 574 399 574 400 574 401 575 402 575 403 575 404 575 405 575 406 575 407 576 408 576 409 576 410 577 411 577 412 577 413 578 414 578 415 579 416 579 417 580 418 580 419 581 420 581 421 582 422 583 423 583 424 584 425 585 426 586 427 586 428 587 429 588 430 589 431 590 432 591 433 592 433 593 434 594 435 595 435 596 436 597 437 598 437 599 438 600 438 601 439 602 439 603 440 604 440 605 441 606 441 607 441 608 442 609 442 610 442 611 442 612 443 613 443 614 443 615 443 616 443 617 443 618 443 619 443 620 444 621 444 622 444 623 444 624 444 625 444 626 443 627 443 628 443 629 443 630 443 631 443 632 443 633 442 634 442 635 442 636 442 637 441 638 441 639 441 640 440 641 440 642 439 643 439 644 438 645 438 646 437 647 437 648 436 649 436 650 435 651 434 652 433 653 433 654 432 655 431 656 430 657 429 658 428 659 427 659 426 660 425 661 424 662 423 662 422 663 421 663 420 664 419 664 418 665 417 665 416 666 415 666 414 667 413 667 412 667 411 668 410 668 409 668 408 669 407 669 406 669 405 669 404 669 403 670 402 670 401 670 400 670 399 670 398 670 397 670 396 670 395 670 394 670 393 670 392 670 391 670 390 670 389 670 388 669 387 669 386 669 385 669 384 669 383 669 382 668 381 668 380 668 379 667 378 667 377 667 376 666 375 666 374 665 373 665 372 664 371 664 370 663 369 663 368 662 367 662 366 661 365 660 364 659 363 659 362 658 361 657 360 656 359 655 358 654 357 653 356 652 356 651 355 650 354 649 353 648 353 647 352 646 351 645 351 644 350 643 350 642 349 641 349 640 349 639 348 638 348 637 347 636 347 635 347 634 347 633 346 632 346 631 346 630 346 629 346 628 345 627 345 626 345 625 345 624 345 623 345 622 345 621 345 620 345 619 345 618 345 Z M 619 371 620 370 621 370 622 370 623 370 624 370 625 371 626 371 627 371 628 371 629 372 630 372 631 372 632 373 633 373 634 374 635 375 636 376 637 376 638 377 638 378 639 379 640 380 641 381 641 382 642 383 642 384 643 385 643 386 644 387 644 388 644 389 644 390 645 391 645 392 645 393 645 394 645 395 645 396 645 397 645 398 644 399 644 400 644 401 644 402 643 403 643 404 643 405 642 406 641 407 641 408 640 409 639 410 638 411 637 412 636 413 635 414 634 415 633 415 632 416 631 417 630 417 629 417 628 418 627 418 626 418 625 418 624 418 623 418 622 418 621 418 620 418 619 418 618 418 617 418 616 418 615 417 614 417 613 417 612 416 611 415 610 415 609 414 608 413 607 412 606 411 605 410 604 409 603 408 603 407 602 406 601 405 601 404 601 403 600 402 600 401 600 400 600 399 599 398 599 397 599 396 599 395 599 394 599 393 599 392 599 391 599 390 600 389 600 388 600 387 601 386 601 385 601 384 602 383 602 382 603 381 604 380 605 379 605 378 606 377 607 376 608 375 609 375 610 374 611 373 612 373 613 372 614 372 615 371 616 371 617 371 618 371 Z M 411 324 410 325 409 325 408 325 407 326 406 326 405 327 404 328 403 329 403 330 402 331 402 332 401 333 401 334 401 335 401 336 401 337 401 338 401 339 401 340 401 341 402 342 402 343 403 344 403 345 404 346 405 347 406 348 407 349 408 350 409 351 410 351 411 352 412 353 413 354 414 354 415 355 416 356 417 356 418 357 419 358 420 359 421 359 422 360 423 361 424 361 425 362 426 363 427 363 428 364 429 365 430 366 431 366 432 367 433 368 434 368 435 369 436 370 437 371 438 371 439 372 440 373 441 373 442 374 443 375 444 376 445 376 446 377 447 378 448 378 449 379 448 380 447 381 446 381 445 382 444 383 443 384 442 385 441 386 440 387 439 388 438 389 438 390 437 391 436 392 436 393 435 394 434 395 434 396 433 397 433 398 433 399 432 400 432 401 432 402 432 403 431 404 431 405 431 406 431 407 431 408 431 409 431 410 431 411 431 412 432 413 432 414 432 415 432 416 433 417 433 418 433 419 434 420 434 421 435 422 435 423 436 424 436 425 437 426 437 427 438 428 439 429 439 430 440 431 441 432 442 433 442 434 443 435 444 436 445 437 446 438 447 439 448 440 449 441 450 442 451 443 452 444 452 445 453 446 454 447 455 448 456 449 457 450 458 451 459 452 460 453 461 453 462 454 463 455 464 455 465 455 466 455 467 455 468 455 469 455 470 455 471 455 472 455 473 454 474 454 475 453 476 452 477 451 478 450 479 449 479 448 479 447 480 446 480 445 480 444 480 443 480 442 480 441 480 440 480 439 480 438 479 437 479 436 478 435 477 434 477 433 476 432 475 431 474 430 473 429 472 428 471 427 470 426 469 425 468 424 467 423 466 422 465 421 464 420 464 419 463 418 462 417 461 416 460 415 460 414 459 413 458 412 458 411 458 410 458 409 458 408 458 407 459 406 460 405 461 404 462 403 463 402 464 401 465 400 466 399 467 399 468 398 469 397 470 396 471 395 472 395 473 394 474 393 475 392 476 392 477 391 478 390 479 389 479 388 480 387 480 386 481 385 481 384 482 383 482 382 482 381 482 380 482 379 482 378 482 377 482 376 481 375 481 374 481 373 480 372 479 371 479 370 478 369 477 368 476 367 475 366 474 365 473 364 472 363 471 363 470 362 469 361 468 360 467 359 466 359 465 358 464 357 463 357 462 356 461 355 460 354 459 354 458 353 457 352 456 352 455 351 454 350 453 349 452 349 451 348 450 347 449 346 448 346 447 345 446 344 445 343 444 343 443 342 442 341 441 341 440 340 439 339 438 338 437 338 436 337 435 336 434 335 433 335 432 334 431 333 430 333 429 332 428 331 427 330 426 330 425 329 424 328 423 328 422 327 421 326 420 326 419 325 418 325 417 324 416 324 415 324 414 324 413 324 412 324 Z M 283 135 282 136 281 136 280 136 279 136 278 136 277 136 276 136 275 136 274 136 273 136 272 136 271 136 270 136 269 136 268 136 267 137 266 137 265 137 264 137 263 137 262 137 261 137 260 137 259 138 258 138 257 138 256 138 255 138 254 138 253 138 252 138 251 139 250 139 249 139 248 139 247 139 246 139 245 140 244 140 243 140 242 140 241 140 240 140 239 141 238 141 237 141 236 141 235 142 234 142 233 142 232 142 231 142 230 143 229 143 228 143 227 143 226 144 225 144 224 144 223 144 222 145 221 145 220 145 219 145 218 146 217 146 216 146 215 147 214 147 213 147 212 148 211 148 210 148 209 149 208 149 207 149 206 150 205 150 204 150 203 151 202 151 201 151 200 152 199 152 198 153 197 153 196 153 195 154 194 154 193 155 192 155 191 155 190 156 189 156 188 157 187 157 186 157 185 158 184 158 183 159 182 159 181 160 180 160 179 161 178 161 177 162 176 162 175 162 174 163 173 164 172 164 171 165 170 165 169 166 168 167 167 168 166 169 165 170 164 171 163 172 163 173 162 174 162 175 162 176 161 177 161 178 161 179 161 180 161 181 161 182 161 183 161 184 161 185 161 186 162 187 162 188 162 189 163 190 163 191 164 192 165 193 166 194 167 195 168 196 169 197 170 197 171 198 172 198 173 199 174 200 175 201 176 201 177 202 178 203 179 204 180 204 181 205 182 206 183 207 184 208 185 209 186 209 187 210 188 211 189 212 190 213 191 214 192 214 193 215 194 216 195 217 196 218 197 219 198 220 199 221 200 222 200 223 201 224 202 225 203 226 204 227 204 228 205 229 206 230 206 231 207 232 208 233 208 234 209 235 210 236 210 237 211 238 211 239 212 240 212 241 213 242 213 243 214 244 214 245 214 246 215 247 215 248 216 249 216 250 216 251 217 252 217 253 217 254 218 255 218 256 218 257 218 258 219 259 219 260 219 261 220 262 220 263 220 264 220 265 221 266 221 267 221 268 221 269 221 270 222 271 222 272 222 273 222 274 223 275 223 276 223 277 223 278 223 279 224 280 224 281 224 282 224 283 224 284 225 285 225 286 225 287 225 288 225 289 226 290 226 291 226 292 226 293 227 294 227 295 227 296 227 297 228 298 228 299 228 300 228 301 229 302 229 303 229 304 230 305 230 306 230 307 230 308 231 309 231 310 231 311 232 312 232 313 232 314 233 315 233 316 233 317 234 318 234 319 234 320 235 321 235 322 235 323 236 324 236 325 236 326 237 327 237 328 238 329 238 330 238 331 239 332 239 333 240 334 240 335 240 336 241 337 241 338 242 339 242 340 243 341 243 342 244 343 244 344 244 345 245 346 245 347 246 348 246 349 247 350 247 351 248 352 248 353 249 354 249 355 250 356 251 357 251 358 252 359 252 360 253 361 253 362 254 363 254 364 255 365 256 366 256 367 257 368 258 369 258 370 259 371 259 372 260 373 261 374 261 375 262 376 263 377 264 378 264 379 265 380 266 381 266 382 267 383 268 384 269 385 269 386 270 387 271 388 272 389 273 390 273 391 274 392 275 393 276 394 277 395 277 396 278 397 279 398 280 399 281 400 282 401 283 402 284 403 284 404 285 405 286 406 287 407 288 408 289 409 290 410 291 411 292 412 293 413 294 414 295 415 296 416 297 417 298 418 299 419 300 419 301 420 302 421 303 422 304 423 305 424 306 425 307 425 308 426 309 427 310 428 311 429 312 430 313 430 314 431 315 432 316 433 317 433 318 434 319 435 320 436 321 436 322 437 323 438 324 439 325 439 326 440 327 441 328 441 329 442 330 443 331 443 332 444 333 445 334 445 335 446 336 447 337 447 338 448 339 449 340 449 341 450 342 450 343 451 344 452 345 452 346 453 347 453 348 454 349 454 350 455 351 456 352 456 353 457 354 457 355 458 356 458 357 459 358 459 359 460 360 460 361 461 362 461 363 462 364 462 365 463 366 463 367 464 368 464 369 465 370 465 371 466 372 466 373 467 374 467 375 467 376 468 377 468 378 469 379 469 380 469 381 470 382 470 383 471 384 471 385 471 386 472 387 472 388 473 389 473 390 473 391 474 392 474 393 474 394 475 395 475 396 475 397 476 398 476 399 476 400 477 401 477 402 477 403 478 404 478 405 478 406 479 406 480 407 481 407 482 408 483 408 484 409 485 409 486 410 487 410 488 411 489 411 490 412 491 412 492 413 493 414 494 414 495 415 496 415 497 416 498 416 499 417 500 417 501 418 502 419 503 419 504 420 505 420 506 421 507 421 508 422 509 423 510 423 511 424 512 425 513 425 514 426 515 426 516 427 517 428 518 428 519 429 520 429 521 430 522 431 523 431 524 430 525 429 526 428 527 427 528 426 528 425 529 424 530 423 531 422 532 421 533 420 533 419 534 418 535 417 536 416 537 415 538 414 539 413 540 412 540 411 541 410 542 409 543 408 544 407 545 406 546 405 547 404 548 403 549 402 550 401 551 400 552 399 553 398 554 397 555 396 556 395 557 394 558 394 559 393 560 392 561 391 562 390 563 389 564 388 565 387 566 386 567 386 568 385 569 384 570 383 571 382 572 381 573 380 574 380 575 379 576 378 577 377 578 376 579 376 580 375 581 374 582 373 583 372 584 372 585 371 586 370 587 369 588 369 589 368 590 367 591 366 592 366 593 365 594 364 595 363 596 363 597 362 598 361 599 361 600 360 601 359 602 358 603 358 604 357 605 356 606 356 607 355 608 354 609 354 610 353 611 352 612 352 613 351 614 351 615 350 616 349 617 349 618 348 619 347 620 347 621 346 622 346 623 345 624 345 625 344 626 343 627 343 628 342 629 342 630 341 631 341 632 340 633 340 634 339 635 339 636 338 637 338 638 337 639 336 640 336 641 335 642 335 643 335 644 334 645 334 646 333 647 333 648 332 649 332 650 331 651 331 652 330 653 330 654 330 655 329 656 329 657 328 658 328 659 328 660 327 661 327 662 326 663 326 664 326 665 325 666 325 667 325 668 324 669 324 670 324 671 323 672 323 673 323 674 322 675 322 676 322 677 322 678 321 679 321 680 321 681 320 682 320 683 320 684 320 685 320 686 319 687 319 688 319 689 319 690 318 691 318 692 318 693 318 694 318 695 318 696 317 697 317 698 317 699 317 700 317 701 317 702 317 703 317 704 317 705 317 706 316 707 316 708 316 709 316 710 316 711 316 712 316 713 316 714 316 715 316 716 316 717 316 718 316 719 316 720 316 721 316 722 316 723 316 724 316 725 317 726 317 727 317 728 317 729 317 730 317 731 317 732 317 733 317 734 318 735 318 736 318 737 318 738 318 739 319 740 319 741 319 742 319 743 320 744 320 745 320 746 320 747 321 748 321 749 321 750 322 751 322 752 322 753 323 754 323 755 323 756 324 757 324 758 324 759 325 760 325 761 326 762 326 763 326 764 327 765 327 766 328 767 328 768 329 769 329 770 330 771 330 772 331 773 331 774 332 775 332 776 333 777 334 778 334 779 335 780 335 781 336 782 337 783 338 784 338 785 339 786 340 787 340 788 341 789 342 790 343 791 344 792 345 793 346 794 347 795 348 796 349 797 350 798 351 799 352 800 353 801 354 802 355 802 356 803 357 804 358 805 359 805 360 806 361 807 362 807 363 808 364 808 365 809 366 809 367 810 368 811 369 811 370 812 371 813 371 814 372 815 372 816 373 817 373 818 373 819 373 820 373 821 373 822 373 823 373 824 373 825 373 826 373 827 373 828 373 829 373 830 372 831 372 832 372 833 372 834 372 835 371 836 371 837 371 838 370 839 370 840 369 841 369 842 369 843 368 844 368 845 368 846 367 847 367 848 367 849 367 850 366 851 366 852 366 853 366 854 366 855 366 856 365 857 365 858 365 859 365 860 365 861 365 862 365 863 365 864 365 865 365 866 365 867 365 868 365 869 365 870 365 871 365 872 365 873 366 874 366 875 366 876 366 877 366 878 367 879 367 880 367 881 367 882 368 883 368 884 368 885 369 886 369 887 370 888 370 889 371 890 371 891 372 892 372 893 373 894 373 895 374 896 375 897 375 898 376 899 377 900 378 901 379 902 380 903 381 904 382 905 383 905 384 906 385 907 386 907 387 908 388 909 389 909 390 910 391 910 392 910 393 911 394 911 395 911 396 912 397 912 398 912 399 913 400 913 401 913 402 913 403 913 404 913 405 914 406 914 407 914 408 914 409 914 410 914 411 914 412 914 413 914 414 914 415 914 416 914 417 914 418 914 419 914 420 914 421 914 422 914 423 914 424 914 425 914 426 914 427 914 428 914 429 914 430 914 431 914 432 914 433 914 434 914 435 914 436 914 437 914 438 914 439 914 440 914 441 914 442 914 443 914 444 914 445 914 446 914 447 914 448 914 449 914 450 914 451 914 452 914 453 914 454 914 455 914 456 914 457 914 458 914 459 914 460 914 461 914 462 914 463 914 464 914 465 914 466 914 467 914 468 914 469 914 470 914 471 914 472 914 473 914 474 914 475 914 476 914 477 914 478 914 479 914 480 914 481 914 482 914 483 914 484 914 485 914 486 914 487 914 488 914 489 914 490 914 491 914 492 914 493 914 494 914 495 914 496 914 497 914 498 914 499 914 500 914 501 914 502 914 503 914 504 914 505 914 506 914 507 914 508 914 509 914 510 914 511 914 512 914 513 914 514 914 515 914 516 914 517 914 518 914 519 914 520 914 521 914 522 914 523 914 524 914 525 914 526 914 527 914 528 914 529 914 530 914 531 914 532 914 533 914 534 914 535 914 536 914 537 914 538 914 539 914 540 914 541 914 542 914 543 914 544 914 545 914 546 914 547 914 548 914 549 914 550 914 551 914 552 914 553 914 554 914 555 914 556 914 557 914 558 914 559 914 560 914 561 914 562 914 563 914 564 914 565 914 566 914 567 914 568 914 569 914 570 914 571 914 572 914 573 914 574 914 575 914 576 914 577 914 578 914 579 914 580 914 581 914 582 914 583 914 584 914 585 914 586 914 587 914 588 914 589 914 590 914 591 914 592 914 593 914 594 914 595 914 596 914 597 914 598 914 599 914 600 914 601 914 602 914 603 914 604 914 605 914 606 914 607 914 608 914 609 914 610 914 611 914 612 914 613 914 614 914 615 914 616 914 617 914 618 914 619 914 620 914 621 914 622 914 623 914 624 914 625 914 626 914 627 914 628 913 629 913 630 913 631 913 632 913 633 913 634 912 635 912 636 912 637 911 638 911 639 910 640 910 641 909 642 909 643 908 644 907 645 907 646 906 647 905 648 904 649 903 650 902 650 901 651 900 652 899 652 898 653 897 653 896 654 895 654 894 654 893 655 892 655 891 655 890 655 889 655 888 656 887 656 886 656 885 656 884 655 883 655 882 655 881 655 880 655 879 655 878 654 877 654 876 654 875 654 874 653 873 653 872 652 871 652 870 651 869 651 868 650 867 650 866 649 865 648 864 648 863 647 862 646 861 645 860 644 859 643 858 642 857 641 857 640 856 639 855 638 855 637 854 636 853 635 853 634 852 633 852 632 851 631 851 630 850 629 850 628 850 627 849 626 849 625 848 624 848 623 848 622 847 621 847 620 847 619 846 618 846 617 846 616 846 615 845 614 845 613 845 612 844 611 844 610 844 609 844 608 844 607 843 606 843 605 843 604 843 603 843 602 842 601 842 600 842 599 842 598 842 597 841 596 841 595 841 594 841 593 841 592 840 591 840 590 839 589 839 588 838 587 838 586 837 585 836 584 835 584 834 585 833 586 833 587 832 588 831 589 831 590 830 591 830 592 829 593 828 594 828 595 827 596 826 597 826 598 825 599 824 600 824 601 823 602 822 603 821 604 820 605 820 606 819 607 818 608 817 609 816 610 815 611 814 612 813 613 812 614 811 615 810 616 809 617 808 618 807 619 806 620 805 621 804 622 803 623 802 623 801 624 800 625 799 626 798 627 797 627 796 628 795 629 794 629 793 630 792 631 791 632 790 632 789 633 788 634 787 634 786 635 785 636 784 637 784 638 784 639 784 640 784 641 783 642 783 643 783 644 783 645 783 646 782 647 782 648 782 649 782 650 781 651 781 652 780 653 780 654 779 655 779 656 778 657 777 658 777 659 776 660 775 661 774 662 773 663 772 664 771 664 770 665 769 666 768 667 767 667 766 668 765 669 764 669 763 670 762 670 761 671 760 671 759 672 758 672 757 673 756 673 755 673 754 674 753 674 752 675 751 675 750 675 749 676 748 676 747 676 746 677 745 677 744 677 743 677 742 678 741 678 740 678 739 678 738 679 737 679 736 679 735 679 734 679 733 679 732 679 731 680 730 680 729 680 728 680 727 680 726 680 725 680 724 680 723 680 722 680 721 680 720 680 719 680 718 680 717 680 716 680 715 680 714 680 713 680 712 680 711 680 710 680 709 680 708 680 707 680 706 679 705 679 704 679 703 679 702 679 701 679 700 679 699 679 698 679 697 678 696 678 695 678 694 678 693 678 692 678 691 677 690 677 689 677 688 677 687 677 686 676 685 676 684 676 683 676 682 676 681 675 680 675 679 675 678 675 677 674 676 674 675 674 674 674 673 673 672 673 671 673 670 673 669 672 668 672 667 672 666 671 665 671 664 671 663 670 662 670 661 670 660 669 659 669 658 669 657 668 656 668 655 668 654 667 653 667 652 667 651 666 650 666 649 666 648 665 647 665 646 664 645 664 644 664 643 663 642 663 641 662 640 662 639 662 638 661 637 661 636 660 635 660 634 660 633 659 632 659 631 658 630 658 629 658 628 657 627 657 626 656 625 656 624 655 623 655 622 655 621 654 620 654 619 653 618 653 617 652 616 652 615 651 614 651 613 650 612 650 611 650 610 649 609 649 608 648 607 648 606 647 605 647 604 646 603 646 602 645 601 645 600 644 599 644 598 643 597 643 596 642 595 642 594 641 593 641 592 640 591 640 590 639 589 639 588 638 587 638 586 637 585 637 584 636 583 635 582 635 581 634 580 634 579 633 578 633 577 632 576 633 575 634 575 635 575 636 575 637 575 638 574 639 574 640 574 641 574 642 574 643 574 644 573 645 573 646 573 647 573 648 573 649 572 650 572 651 572 652 572 653 571 654 571 655 571 656 570 657 570 658 570 659 569 660 569 661 569 662 568 663 568 664 568 665 567 666 567 667 566 668 566 669 565 670 565 671 565 672 564 673 564 674 563 675 563 676 562 677 562 678 561 679 561 680 560 681 560 682 559 683 559 684 558 685 557 686 557 687 556 688 556 689 555 690 554 691 554 692 553 693 552 694 552 695 551 696 550 697 550 698 549 699 548 700 548 701 547 702 546 703 545 704 544 705 544 706 543 707 542 708 541 709 540 710 539 711 539 712 538 713 537 714 536 715 535 716 534 717 533 718 532 719 531 720 530 721 529 722 528 723 527 723 526 724 525 725 524 726 523 727 522 728 521 728 520 729 519 730 518 731 517 731 516 732 515 733 514 734 513 734 512 735 511 736 510 736 509 737 508 738 507 738 506 739 505 739 504 740 503 741 502 741 501 742 500 742 499 743 498 743 497 744 496 744 495 745 494 745 493 746 492 746 491 747 490 747 489 748 488 748 487 749 486 749 485 749 484 750 483 750 482 751 481 751 480 751 479 752 478 752 477 752 476 753 475 753 474 753 473 754 472 754 471 754 470 754 469 755 468 755 467 755 466 755 465 755 464 756 463 756 462 756 461 756 460 756 459 757 458 757 457 757 456 757 455 757 454 757 453 757 452 757 451 758 450 758 449 758 448 758 447 758 446 758 445 758 444 758 443 758 442 758 441 758 440 758 439 758 438 758 437 758 436 757 435 757 434 757 433 757 432 757 431 757 430 756 429 756 428 756 427 756 426 755 425 755 424 754 423 754 422 754 421 753 420 753 419 752 418 751 417 751 416 750 415 749 414 749 413 748 412 747 411 746 410 745 409 744 408 743 407 742 406 741 406 740 405 739 404 738 404 737 403 736 402 735 402 734 401 733 401 732 400 731 400 730 399 729 399 728 398 727 398 726 397 725 397 724 396 723 395 723 394 723 393 723 392 723 391 724 390 724 389 724 388 724 387 724 386 724 385 724 384 724 383 724 382 724 381 724 380 724 379 724 378 724 377 724 376 724 375 724 374 723 373 723 372 723 371 723 370 723 369 723 368 723 367 723 366 723 365 723 364 722 363 722 362 722 361 722 360 722 359 722 358 721 357 721 356 721 355 721 354 721 353 720 352 720 351 720 350 720 349 720 348 719 347 719 346 719 345 719 344 718 343 718 342 718 341 717 340 717 339 717 338 716 337 716 336 716 335 715 334 715 333 715 332 714 331 714 330 713 329 713 328 712 327 712 326 712 325 711 324 711 323 710 322 710 321 709 320 709 319 708 318 708 317 707 316 707 315 706 314 705 313 705 312 704 311 704 310 703 309 703 308 702 307 701 306 701 305 700 304 699 303 699 302 698 301 698 300 697 299 696 298 695 297 695 296 694 295 693 294 692 293 692 292 691 291 690 290 689 289 688 288 687 287 687 286 686 285 685 284 684 283 683 282 682 281 681 280 680 279 679 278 678 277 677 276 676 276 675 275 674 274 673 273 672 272 671 271 670 271 669 270 668 269 667 268 666 267 665 267 664 266 663 265 662 264 661 264 660 263 659 262 658 262 657 261 656 260 655 260 654 259 653 259 652 258 651 257 650 257 649 256 648 256 647 255 646 254 645 254 644 253 643 253 642 252 641 252 640 251 639 251 638 250 637 250 636 249 635 249 634 248 633 248 632 248 631 247 630 247 629 246 628 246 627 245 626 245 625 245 624 244 623 244 622 244 621 243 620 243 619 242 618 242 617 242 616 241 615 241 614 241 613 241 612 240 611 240 610 240 609 239 608 239 607 239 606 239 605 238 604 238 603 238 602 238 601 237 600 237 599 237 598 237 597 236 596 236 595 236 594 236 593 236 592 235 591 235 590 235 589 235 588 235 587 235 586 234 585 234 584 234 583 234 582 234 581 234 580 234 579 234 578 233 577 233 576 233 575 233 574 233 573 233 572 233 571 233 570 233 569 233 568 233 567 233 566 233 565 233 564 233 563 233 562 233 561 233 560 233 559 233 558 233 557 233 556 233 555 233 554 233 553 233 552 233 551 233 550 233 549 233 548 233 547 233 546 233 545 233 544 233 543 234 542 234 541 234 540 234 539 234 538 234 537 234 536 234 535 235 534 235 533 235 532 235 531 235 530 235 529 236 528 236 527 236 526 236 525 236 524 237 523 237 522 237 521 237 520 238 519 238 518 238 517 238 516 237 515 236 514 235 513 234 512 233 511 232 510 231 509 230 508 229 507 228 506 227 505 226 504 225 503 224 502 223 501 222 500 221 499 220 498 219 497 218 496 217 495 216 494 215 493 215 492 214 491 213 490 212 489 211 488 210 487 209 486 208 485 207 484 207 483 206 482 205 481 204 480 203 479 203 478 202 477 201 476 200 475 199 474 199 473 198 472 197 471 196 470 196 469 195 468 194 467 193 466 193 465 192 464 191 463 191 462 190 461 189 460 189 459 188 458 187 457 187 456 186 455 185 454 184 453 184 452 183 451 183 450 182 449 181 448 181 447 180 446 179 445 179 444 178 443 178 442 177 441 177 440 176 439 175 438 175 437 174 436 174 435 173 434 173 433 172 432 171 431 171 430 170 429 170 428 169 427 169 426 168 425 168 424 167 423 167 422 166 421 166 420 165 419 165 418 164 417 164 416 163 415 163 414 162 413 162 412 161 411 161 410 161 409 160 408 160 407 159 406 159 405 158 404 158 403 158 402 157 401 157 400 156 399 156 398 156 397 155 396 155 395 154 394 154 393 154 392 153 391 153 390 153 389 152 388 152 387 151 386 151 385 151 384 150 383 150 382 150 381 149 380 149 379 149 378 148 377 148 376 148 375 148 374 147 373 147 372 147 371 146 370 146 369 146 368 146 367 145 366 145 365 145 364 144 363 144 362 144 361 144 360 143 359 143 358 143 357 143 356 142 355 142 354 142 353 142 352 142 351 141 350 141 349 141 348 141 347 141 346 140 345 140 344 140 343 140 342 140 341 139 340 139 339 139 338 139 337 139 336 139 335 138 334 138 333 138 332 138 331 138 330 138 329 138 328 137 327 137 326 137 325 137 324 137 323 137 322 137 321 137 320 137 319 136 318 136 317 136 316 136 315 136 314 136 313 136 312 136 311 136 310 136 309 136 308 136 307 136 306 136 305 135 304 135 303 135 302 135 301 135 300 135 299 135 298 135 297 135 296 135 295 135 294 135 293 135 292 135 291 135 290 135 289 135 288 135 287 135 286 135 285 135 284 135 Z M 559 844 560 843 561 844 562 845 562 846 562 847 563 848 563 849 564 850 564 851 565 852 566 853 567 854 568 855 569 856 570 857 571 857 572 858 573 859 574 860 575 860 576 861 577 862 578 862 579 863 580 863 581 864 582 864 583 864 584 864 585 865 586 865 587 865 588 865 589 865 590 866 591 866 592 866 593 866 594 866 595 867 596 867 597 867 598 867 599 867 600 868 601 868 602 868 603 868 604 869 605 869 606 869 607 869 608 870 609 870 610 870 611 870 612 871 613 871 614 871 615 872 616 872 617 872 618 873 619 873 620 874 621 874 622 875 623 875 624 876 625 877 626 877 627 878 628 879 628 880 629 881 630 882 630 883 630 884 629 885 629 886 628 887 627 887 626 888 625 888 624 888 623 888 622 888 621 888 620 889 619 889 618 889 617 889 616 889 615 889 614 889 613 889 612 889 611 889 610 889 609 889 608 889 607 889 606 889 605 889 604 889 603 889 602 889 601 889 600 889 599 889 598 889 597 889 596 889 595 889 594 889 593 889 592 889 591 889 590 889 589 889 588 889 587 889 586 889 585 889 584 889 583 889 582 889 581 889 580 889 579 889 578 889 577 889 576 889 575 889 574 889 573 888 572 888 571 888 570 887 569 887 568 886 567 885 566 885 565 884 564 883 563 882 562 881 561 880 560 879 559 878 558 878 557 877 556 876 555 875 554 874 553 874 552 873 551 873 550 872 549 872 548 871 547 871 546 871 545 870 544 870 543 870 542 869 541 869 540 869 539 868 538 868 537 868 536 868 535 867 534 867 533 867 532 866 531 866 530 866 529 865 528 865 527 865 526 864 525 863 524 862 523 861 523 860 523 859 523 858 523 857 523 856 524 855 524 854 525 853 526 852 527 852 528 851 529 851 530 851 531 850 532 850 533 850 534 850 535 850 536 849 537 849 538 849 539 849 540 849 541 848 542 848 543 848 544 848 545 848 546 847 547 847 548 847 549 847 550 846 551 846 552 846 553 846 554 845 555 845 556 845 557 844 558 844 Z M 272 163 273 162 274 162 275 162 276 162 277 162 278 162 279 162 280 162 281 162 282 162 283 162 284 162 285 162 286 162 287 162 288 162 289 162 290 162 291 162 292 162 293 162 294 162 295 162 296 162 297 162 298 162 299 162 300 162 301 162 302 162 303 162 304 162 305 162 306 162 307 162 308 162 309 162 310 162 311 162 312 162 313 163 314 163 315 163 316 163 317 163 318 163 319 163 320 163 321 163 322 163 323 163 324 164 325 164 326 164 327 164 328 164 329 164 330 164 331 165 332 165 333 165 334 165 335 165 336 165 337 166 338 166 339 166 340 166 341 166 342 166 343 167 344 167 345 167 346 167 347 168 348 168 349 168 350 168 351 168 352 169 353 169 354 169 355 169 356 170 357 170 358 170 359 170 360 171 361 171 362 171 363 172 364 172 365 172 366 172 367 173 368 173 369 173 370 174 371 174 372 174 373 175 374 175 375 175 376 176 377 176 378 176 379 177 380 177 381 177 382 178 383 178 384 178 385 179 386 179 387 180 388 180 389 180 390 181 391 181 392 182 393 182 394 183 395 183 396 183 397 184 398 184 399 185 400 185 401 186 402 186 403 187 404 187 405 187 406 188 407 188 408 189 409 189 410 190 411 190 412 191 413 191 414 192 415 192 416 193 417 194 418 194 419 195 420 195 421 196 422 196 423 197 424 197 425 198 426 199 427 199 428 200 429 200 430 201 431 202 432 202 433 203 434 203 435 204 436 205 437 205 438 206 439 207 440 207 441 208 442 209 443 209 444 210 445 211 446 211 447 212 448 213 449 213 450 214 451 215 452 216 453 216 454 217 455 218 456 219 457 219 458 220 459 221 460 222 461 223 462 223 463 224 464 225 465 226 466 227 467 227 468 228 469 229 470 230 471 231 472 232 473 232 474 233 475 234 476 235 477 236 478 237 479 238 480 239 481 240 482 241 483 242 484 243 485 244 486 245 487 246 488 247 489 248 490 249 491 250 492 251 493 252 494 253 495 254 496 255 497 256 498 257 499 258 500 259 501 260 502 261 503 262 504 263 505 264 506 264 507 265 508 265 509 265 510 266 511 266 512 266 513 266 514 266 515 266 516 265 517 265 518 265 519 265 520 264 521 264 522 264 523 264 524 263 525 263 526 263 527 263 528 262 529 262 530 262 531 262 532 261 533 261 534 261 535 261 536 261 537 260 538 260 539 260 540 260 541 260 542 260 543 260 544 259 545 259 546 259 547 259 548 259 549 259 550 259 551 259 552 259 553 259 554 259 555 258 556 258 557 258 558 258 559 258 560 258 561 258 562 258 563 258 564 258 565 258 566 258 567 258 568 259 569 259 570 259 571 259 572 259 573 259 574 259 575 259 576 259 577 259 578 259 579 260 580 260 581 260 582 260 583 260 584 260 585 260 586 261 587 261 588 261 589 261 590 261 591 262 592 262 593 262 594 262 595 262 596 263 597 263 598 263 599 264 600 264 601 264 602 264 603 265 604 265 605 265 606 266 607 266 608 266 609 267 610 267 611 267 612 268 613 268 614 268 615 269 616 269 617 270 618 270 619 271 620 271 621 271 622 272 623 272 624 273 625 273 626 274 627 274 628 275 629 275 630 276 631 276 632 277 633 277 634 278 635 279 636 279 637 280 638 280 639 281 640 282 641 282 642 283 643 284 644 284 645 285 646 286 647 287 648 287 649 288 650 289 651 290 652 290 653 291 654 292 655 293 656 294 657 294 658 295 659 296 660 297 661 298 662 299 663 300 664 301 665 302 666 303 667 304 668 305 669 306 670 307 670 308 671 309 672 310 673 311 674 312 674 313 675 314 676 315 676 316 677 317 678 318 678 319 679 320 680 321 680 322 681 323 681 324 682 325 683 326 683 327 684 328 684 329 685 330 685 331 686 332 686 333 687 334 687 335 687 336 688 337 688 338 689 339 689 340 689 341 690 342 690 343 690 344 691 345 691 346 691 347 692 348 692 349 692 350 693 351 693 352 693 353 693 354 694 355 694 356 694 357 694 358 695 359 695 360 695 361 695 362 695 363 696 364 696 365 696 366 696 367 696 368 696 369 697 370 697 371 697 372 697 373 697 374 697 375 697 376 697 377 697 378 698 379 698 380 698 381 698 382 698 383 698 384 698 385 698 386 698 387 698 388 698 389 698 390 698 391 698 392 698 393 698 394 698 395 698 396 698 397 698 398 698 399 698 400 698 401 698 402 698 403 698 404 699 405 699 406 699 407 699 408 700 409 700 410 701 411 701 412 702 413 703 414 704 415 705 416 706 417 707 417 708 418 709 418 710 419 711 419 712 420 713 420 714 420 715 421 716 421 717 422 718 422 719 423 720 423 721 424 722 425 723 425 724 426 725 427 726 428 727 429 728 430 729 431 730 432 731 433 731 434 732 435 732 436 732 437 733 438 733 439 733 440 733 441 733 442 733 443 733 444 733 445 733 446 733 447 733 448 733 449 732 450 732 451 732 452 732 453 732 454 732 455 731 456 731 457 731 458 731 459 730 460 729 461 728 461 727 461 726 461 725 461 724 462 723 462 722 462 721 462 720 462 719 463 718 463 717 463 716 463 715 463 714 463 713 463 712 464 711 464 710 464 709 464 708 464 707 464 706 464 705 464 704 465 703 465 702 465 701 465 700 465 699 465 698 465 697 465 696 465 695 465 694 465 693 465 692 465 691 465 690 466 689 466 688 466 687 466 686 466 685 466 684 466 683 466 682 466 681 466 680 466 679 466 678 466 677 466 676 466 675 466 674 466 673 466 672 466 671 466 670 466 669 466 668 466 667 466 666 466 665 466 664 466 663 467 662 467 661 468 660 468 659 469 658 470 657 471 657 472 656 473 656 474 655 475 655 476 655 477 655 478 655 479 655 480 655 481 656 482 656 483 656 484 657 485 658 486 658 487 659 488 660 488 661 489 662 489 663 490 664 490 665 490 666 491 667 491 668 491 669 491 670 491 671 491 672 491 673 491 674 491 675 491 676 491 677 491 678 491 679 491 680 491 681 491 682 491 683 491 684 491 685 491 686 491 687 491 688 491 689 491 690 491 691 491 692 491 693 491 694 491 695 490 696 490 697 490 698 490 699 490 700 490 701 490 702 490 703 490 704 490 705 490 706 490 707 490 708 490 709 490 710 490 711 489 712 489 713 489 714 489 715 489 716 489 717 490 717 491 716 492 715 493 715 494 714 495 713 496 713 497 712 498 711 499 710 500 710 501 709 502 708 503 707 504 707 505 706 506 705 507 704 508 703 509 702 510 701 511 700 512 699 513 698 514 697 515 696 516 695 517 694 518 693 519 692 520 691 521 690 522 689 523 688 524 687 524 686 525 685 526 684 527 683 527 682 528 681 529 680 530 679 530 678 531 677 532 676 532 675 533 674 534 673 534 672 535 671 535 670 536 669 537 668 537 667 538 666 538 665 539 664 539 663 540 662 540 661 541 660 541 659 542 658 542 657 543 656 543 655 543 654 544 653 544 652 544 651 545 650 545 649 546 648 546 647 546 646 546 645 547 644 547 643 547 642 548 641 548 640 548 639 548 638 549 637 549 636 549 635 549 634 549 633 550 632 550 631 550 630 550 629 550 628 551 627 551 626 551 625 551 624 551 623 551 622 551 621 552 620 552 619 552 618 552 617 552 616 552 615 552 614 552 613 552 612 552 611 552 610 553 609 553 608 553 607 553 606 554 605 554 604 555 603 556 602 557 601 558 601 559 600 560 600 561 600 562 600 563 600 564 600 565 600 566 600 567 600 568 601 569 601 570 602 571 602 572 602 573 603 574 603 575 604 576 604 577 605 578 605 579 606 580 606 581 607 582 607 583 608 584 608 585 609 586 609 587 610 588 610 589 611 590 611 591 612 592 612 593 613 594 613 595 614 596 614 597 615 598 615 599 616 600 616 601 617 602 617 603 618 604 618 605 619 606 619 607 620 608 620 609 621 610 621 611 622 612 622 613 623 614 623 615 624 616 624 617 625 618 625 619 626 620 626 621 627 622 627 623 627 624 628 625 628 626 629 627 629 628 630 629 630 630 631 631 631 632 631 633 632 634 632 635 633 636 633 637 634 638 634 639 634 640 635 641 635 642 636 643 636 644 637 645 637 646 637 647 638 648 638 649 639 650 639 651 639 652 640 653 640 654 641 655 641 656 641 657 642 658 642 659 643 660 643 661 643 662 644 663 644 664 644 665 645 666 645 667 645 668 646 669 646 670 646 671 647 672 647 673 647 674 648 675 648 676 648 677 649 678 649 679 649 680 649 681 650 682 650 683 650 684 650 685 651 686 651 687 651 688 651 689 652 690 652 691 652 692 652 693 653 694 653 695 653 696 653 697 653 698 653 699 654 700 654 701 654 702 654 703 654 704 654 705 654 706 654 707 655 708 655 709 655 710 655 711 655 712 655 713 655 714 655 715 655 716 655 717 655 718 655 719 655 720 655 721 655 722 655 723 655 724 654 725 654 726 654 727 654 728 654 729 654 730 654 731 653 732 653 733 653 734 653 735 653 736 652 737 652 738 652 739 651 740 651 741 651 742 650 743 650 744 650 745 649 746 648 747 647 746 647 745 646 744 645 743 644 742 643 741 642 741 641 740 640 740 639 740 638 739 637 739 636 739 635 739 634 739 633 740 632 740 631 740 630 741 629 741 628 742 627 743 626 744 626 745 625 746 625 747 624 748 624 749 623 750 623 751 622 752 622 753 622 754 621 755 621 756 620 757 620 758 619 759 619 760 619 761 618 762 618 763 617 764 617 765 616 766 615 767 615 768 614 769 614 770 613 771 613 772 612 773 611 774 611 775 610 776 609 777 608 778 608 779 607 780 606 781 605 782 605 783 604 784 603 785 602 786 601 787 600 788 599 789 598 790 597 791 596 792 595 793 594 794 593 795 592 796 591 797 590 798 589 799 588 800 587 800 586 801 585 802 584 803 583 804 582 804 581 805 580 806 579 806 578 807 577 808 576 808 575 809 574 810 573 810 572 811 571 811 570 812 569 812 568 813 567 813 566 814 565 814 564 815 563 815 562 816 561 816 560 817 559 817 558 817 557 818 556 818 555 819 554 819 553 819 552 820 551 820 550 820 549 821 548 821 547 821 546 821 545 822 544 822 543 822 542 822 541 823 540 823 539 823 538 823 537 823 536 824 535 824 534 824 533 824 532 824 531 825 530 825 529 825 528 825 527 825 526 826 525 826 524 826 523 826 522 826 521 827 520 827 519 827 518 828 517 828 516 828 515 829 514 829 513 830 512 831 511 831 510 832 509 833 508 834 507 835 507 836 506 837 505 838 505 839 504 840 503 841 503 842 502 843 502 844 501 845 501 846 501 847 500 848 500 849 499 850 499 851 499 852 499 853 498 854 498 855 498 856 498 857 498 858 498 859 498 860 498 861 498 862 498 863 498 864 498 865 498 866 498 867 499 868 499 869 499 870 500 871 500 872 501 873 501 874 502 875 503 876 503 877 504 878 505 879 506 880 507 881 508 882 509 883 510 883 511 884 512 885 513 885 514 886 515 886 516 887 516 888 515 889 514 889 513 889 512 889 511 889 510 889 509 889 508 889 507 889 506 889 505 889 504 889 503 889 502 889 501 889 500 889 499 889 498 889 497 889 496 889 495 889 494 889 493 889 492 889 491 889 490 889 489 889 488 889 487 889 486 889 485 889 484 889 483 889 482 889 481 889 480 889 479 889 478 889 477 889 476 889 475 889 474 889 473 889 472 889 471 889 470 889 469 889 468 889 467 889 466 889 465 889 464 889 463 889 462 889 461 889 460 889 459 889 458 889 457 889 456 889 455 889 454 889 453 889 452 889 451 889 450 889 449 889 448 889 447 889 446 889 445 889 444 889 443 889 442 889 441 889 440 889 439 889 438 889 437 889 436 889 435 889 434 889 433 889 432 889 431 889 430 889 429 889 428 889 427 889 426 889 425 889 424 889 423 889 422 889 421 889 420 889 419 889 418 889 417 889 416 889 415 889 414 889 413 889 412 889 411 889 410 889 409 889 408 889 407 888 406 888 405 888 404 888 403 888 402 888 401 888 400 887 399 887 398 886 397 885 396 884 395 883 394 882 394 881 393 880 393 879 393 878 392 877 392 876 391 875 391 874 391 873 391 872 391 871 390 870 390 869 390 868 390 867 390 866 390 865 390 864 390 863 390 862 390 861 390 860 390 859 390 858 391 857 391 856 391 855 391 854 392 853 392 852 392 851 392 850 393 849 393 848 393 847 394 846 394 845 394 844 395 843 395 842 396 841 396 840 396 839 397 838 397 837 397 836 397 835 398 834 398 833 398 832 398 831 398 830 399 829 399 828 399 827 399 826 399 825 399 824 399 823 399 822 399 821 398 820 398 819 398 818 398 817 398 816 398 815 397 814 397 813 397 812 397 811 396 810 396 809 395 808 395 807 395 806 394 805 394 804 393 803 393 802 392 801 392 800 391 799 390 798 390 797 389 796 388 795 388 794 387 793 386 792 385 791 384 790 383 790 382 789 381 789 380 788 379 787 378 787 377 787 376 786 375 785 374 785 373 784 372 783 371 782 370 782 369 781 368 780 367 779 366 778 365 777 364 776 363 775 362 774 362 773 361 772 360 771 359 770 358 769 358 768 357 767 356 766 356 765 355 764 354 763 354 762 353 761 353 760 352 759 352 758 351 757 351 756 350 755 350 754 349 753 349 752 348 751 348 750 348 749 347 748 347 747 346 746 346 745 346 744 345 743 345 742 345 741 345 740 344 739 344 738 344 737 344 736 343 735 343 734 343 733 343 732 343 731 342 730 342 729 342 728 342 727 342 726 342 725 342 724 342 723 342 722 342 721 342 720 342 719 341 718 341 717 342 716 342 715 342 714 342 713 342 712 342 711 342 710 342 709 342 708 342 707 342 706 342 705 342 704 342 703 343 702 343 701 343 700 343 699 343 698 343 697 344 696 344 695 344 694 344 693 344 692 345 691 345 690 345 689 345 688 345 687 346 686 346 685 346 684 347 683 347 682 347 681 347 680 348 679 348 678 348 677 349 676 349 675 349 674 350 673 350 672 351 671 351 670 351 669 352 668 352 667 353 666 353 665 353 664 354 663 354 662 355 661 355 660 356 659 356 658 356 657 357 656 357 655 358 654 358 653 359 652 359 651 360 650 360 649 361 648 361 647 362 646 363 645 363 644 364 643 364 642 365 641 365 640 366 639 366 638 367 637 368 636 368 635 369 634 369 633 370 632 371 631 371 630 372 629 372 628 373 627 374 626 374 625 375 624 376 623 376 622 377 621 378 620 378 619 379 618 380 617 380 616 381 615 382 614 383 613 383 612 384 611 385 610 386 609 386 608 387 607 388 606 388 605 389 604 390 603 391 602 392 601 392 600 393 599 394 598 395 597 396 596 396 595 397 594 398 593 399 592 400 591 400 590 401 589 402 588 403 587 404 586 405 585 406 584 407 583 407 582 408 581 409 580 410 579 411 578 412 577 413 576 414 575 415 574 416 573 417 572 418 571 419 570 420 569 421 568 422 567 423 566 424 565 425 564 426 563 427 562 428 561 429 560 430 559 431 558 432 557 433 556 434 555 435 554 436 553 437 553 438 552 439 551 440 550 441 549 442 548 443 547 444 546 445 545 446 545 447 544 448 543 449 542 450 541 451 540 452 540 453 539 454 538 455 537 456 537 457 536 458 535 459 534 459 533 460 532 460 531 461 530 461 529 461 528 461 527 461 526 461 525 461 524 461 523 460 522 460 521 459 520 459 519 458 518 458 517 457 516 456 515 456 514 455 513 454 512 454 511 453 510 452 509 452 508 451 507 451 506 450 505 449 504 449 503 448 502 448 501 447 500 447 499 446 498 445 497 445 496 444 495 444 494 443 493 443 492 442 491 441 490 441 489 440 488 440 487 439 486 440 485 441 485 442 485 443 485 444 485 445 485 446 485 447 485 448 485 449 485 450 485 451 484 452 484 453 484 454 483 455 483 456 482 457 481 458 480 458 479 459 478 459 477 460 476 460 475 460 474 460 473 460 472 460 471 460 470 460 469 460 468 459 467 459 466 458 465 457 464 456 463 455 462 454 461 453 461 452 460 451 460 450 460 449 460 448 460 447 460 446 460 445 459 444 459 443 459 442 459 441 459 440 459 439 459 438 459 437 459 436 459 435 459 434 459 433 458 432 458 431 458 430 458 429 458 428 458 427 457 426 457 425 457 424 457 423 457 422 456 421 456 420 456 419 456 418 455 417 455 416 455 415 455 414 454 413 454 412 454 411 454 410 453 409 453 408 453 407 452 406 452 405 452 404 451 403 451 402 451 401 450 400 450 399 450 398 449 397 449 396 449 395 448 394 448 393 447 392 447 391 447 390 446 389 446 388 445 387 445 386 445 385 444 384 444 383 443 382 443 381 442 380 442 379 441 378 441 377 440 376 440 375 439 374 439 373 438 372 438 371 437 370 437 369 436 368 436 367 435 366 435 365 434 364 434 363 433 362 432 361 432 360 431 359 431 358 430 357 429 356 429 355 428 354 428 353 427 352 426 351 426 350 425 349 424 348 424 347 423 346 422 345 422 344 421 343 420 342 420 341 419 340 418 339 417 338 417 337 416 336 415 335 414 334 414 333 413 332 412 331 411 330 411 329 410 328 409 327 408 326 407 325 406 324 406 323 405 322 404 321 403 320 402 319 401 318 400 317 399 316 398 315 398 314 397 313 396 312 395 311 394 310 393 309 392 308 391 307 390 306 389 305 388 304 387 303 386 303 385 302 384 301 383 300 382 299 381 298 380 297 379 296 378 296 377 295 376 294 375 293 374 293 373 292 372 291 371 290 370 290 369 289 368 288 367 287 366 287 365 286 364 285 363 285 362 284 361 284 360 283 359 282 358 282 357 281 356 280 355 280 354 279 353 279 352 278 351 277 350 277 349 276 348 276 347 275 346 275 345 274 344 273 343 273 342 272 341 272 340 271 339 271 338 270 337 270 336 269 335 269 334 268 333 268 332 267 331 267 330 266 329 266 328 265 327 265 326 265 325 264 324 264 323 263 322 263 321 262 320 262 319 262 318 261 317 261 316 260 315 260 314 260 313 259 312 259 311 259 310 258 309 258 308 257 307 257 306 257 305 256 304 256 303 256 302 256 301 255 300 255 299 255 298 254 297 254 296 254 295 254 294 253 293 253 292 253 291 252 290 252 289 252 288 252 287 251 286 251 285 251 284 251 283 251 282 250 281 250 280 250 279 250 278 249 277 249 276 249 275 249 274 249 273 248 272 248 271 248 270 248 269 248 268 247 267 247 266 247 265 247 264 247 263 246 262 246 261 246 260 246 259 245 258 245 257 245 256 245 255 245 254 244 253 244 252 244 251 244 250 243 249 243 248 243 247 242 246 242 245 242 244 241 243 241 242 241 241 240 240 240 239 240 238 239 237 239 236 238 235 238 234 238 233 237 232 237 231 236 230 236 229 235 228 235 227 234 226 234 225 233 224 232 223 232 222 231 221 231 220 230 219 229 218 229 217 228 216 227 215 227 214 226 213 225 212 224 211 224 210 223 209 222 208 221 207 220 206 220 205 219 204 218 203 217 202 216 201 215 200 214 199 213 198 212 197 211 196 210 195 209 194 208 194 207 193 206 192 205 191 204 190 203 189 202 189 201 188 200 187 199 186 198 186 197 185 196 184 195 184 194 183 195 182 196 181 197 181 198 180 199 180 200 180 201 179 202 179 203 178 204 178 205 178 206 177 207 177 208 177 209 176 210 176 211 176 212 175 213 175 214 174 215 174 216 174 217 173 218 173 219 173 220 173 221 172 222 172 223 172 224 171 225 171 226 171 227 170 228 170 229 170 230 170 231 169 232 169 233 169 234 169 235 168 236 168 237 168 238 168 239 167 240 167 241 167 242 167 243 167 244 166 245 166 246 166 247 166 248 166 249 165 250 165 251 165 252 165 253 165 254 165 255 165 256 164 257 164 258 164 259 164 260 164 261 164 262 164 263 163 264 163 265 163 266 163 267 163 268 163 269 163 270 163 271 163 Z M 723 134 722 135 721 136 720 136 719 137 719 138 718 139 717 140 717 141 717 142 716 143 716 144 716 145 715 146 715 147 715 148 714 149 714 150 714 151 713 152 713 153 713 154 712 155 712 156 711 157 711 158 710 159 710 160 709 161 709 162 708 163 707 164 707 165 706 166 705 167 704 168 703 169 702 170 701 171 700 172 699 173 698 174 697 175 696 176 695 176 694 177 693 178 692 178 691 179 690 179 689 180 688 180 687 181 686 181 685 182 684 182 683 182 682 183 681 183 680 183 679 184 678 184 677 184 676 184 675 185 674 185 673 185 672 186 671 186 670 187 669 187 668 188 667 189 666 190 665 191 665 192 664 193 664 194 664 195 663 196 663 197 663 198 664 199 664 200 664 201 664 202 665 203 666 204 666 205 667 206 668 207 669 207 670 208 671 209 672 209 673 209 674 210 675 210 676 210 677 210 678 210 679 211 680 211 681 211 682 212 683 212 684 212 685 213 686 213 687 214 688 214 689 215 690 215 691 216 692 216 693 217 694 218 695 218 696 219 697 220 698 221 699 222 700 223 701 224 702 225 703 226 704 227 705 228 706 229 707 230 707 231 708 232 709 233 709 234 710 235 710 236 711 237 711 238 712 239 712 240 713 241 713 242 713 243 714 244 714 245 714 246 715 247 715 248 715 249 715 250 716 251 716 252 717 253 717 254 718 255 718 256 719 257 720 257 721 258 722 259 723 259 724 260 725 260 726 260 727 260 728 260 729 260 730 260 731 259 732 259 733 258 734 258 735 257 736 256 737 255 737 254 738 253 738 252 738 251 739 250 739 249 739 248 740 247 740 246 740 245 741 244 741 243 741 242 742 241 742 240 742 239 743 238 743 237 744 236 744 235 745 234 746 233 746 232 747 231 747 230 748 229 749 228 750 227 751 226 751 225 752 224 753 223 754 222 755 222 756 221 757 220 758 219 759 218 760 218 761 217 762 216 763 216 764 215 765 215 766 214 767 214 768 213 769 213 770 212 771 212 772 212 773 211 774 211 775 211 776 210 777 210 778 210 779 210 780 210 781 209 782 209 783 208 784 208 785 207 786 207 787 206 788 205 788 204 789 203 790 202 790 201 790 200 790 199 790 198 790 197 790 196 790 195 790 194 790 193 789 192 789 191 788 190 787 189 786 188 785 187 784 187 783 186 782 186 781 185 780 185 779 185 778 184 777 184 776 184 775 184 774 183 773 183 772 183 771 182 770 182 769 181 768 181 767 181 766 180 765 179 764 179 763 178 762 178 761 177 760 176 759 176 758 175 757 174 756 173 755 172 754 171 753 170 752 169 751 168 750 167 749 166 748 165 748 164 747 163 746 162 746 161 745 160 745 159 744 158 744 157 743 156 743 155 742 154 742 153 742 152 741 151 741 150 741 149 740 148 740 147 740 146 739 145 739 144 739 143 738 142 738 141 738 140 737 139 737 138 736 137 735 136 734 136 733 135 732 135 731 134 730 134 729 134 728 134 727 134 726 134 725 134 724 134 Z" fill="#fff" fill-rule="evenodd"/>
</svg>
